<svg width="18" height="18" viewBox="0 0 18 18" fill="none" xmlns="http://www.w3.org/2000/svg">
<path d="M14.1175 12.5063C14.0388 13.0508 12.9273 14.463 12.4158 14.6678C12.2418 14.7375 12.073 14.7203 11.938 14.6168C11.851 14.5493 11.7618 14.4128 10.5633 12.4673L10.207 11.8875C10.0698 11.6798 10.096 11.406 10.2655 11.1975C10.4328 10.995 10.6773 10.92 10.8895 11.001C10.9015 11.007 11.7858 11.2988 11.7858 11.2988C13.8018 11.961 13.867 11.9865 13.954 12.0503C14.0815 12.1545 14.1408 12.3173 14.1145 12.5063H14.1175ZM10.078 9.54677C9.93553 9.33002 9.93778 9.07427 10.0855 8.89802L10.645 8.13377C11.8765 6.45752 11.944 6.36902 12.0273 6.31052C12.0996 6.26364 12.1832 6.23721 12.2693 6.23404C12.3554 6.23087 12.4407 6.25108 12.5163 6.29252C13.0045 6.52952 13.9908 7.99427 14.05 8.55677V8.57552C14.0606 8.65962 14.0482 8.74502 14.0139 8.82257C13.9797 8.90013 13.925 8.96691 13.8558 9.01577C13.7635 9.07502 13.6795 9.10952 11.3875 9.66527C11.0253 9.75752 10.8235 9.80777 10.705 9.85052L10.7208 9.83327C10.4943 9.90152 10.2408 9.79202 10.0975 9.56552L10.078 9.54677ZM8.67178 8.67752C8.56228 8.71202 8.22853 8.81627 7.81753 8.15102C7.81753 8.15102 5.04703 3.79127 4.98253 3.65702C4.94278 3.50627 4.99078 3.33527 5.12503 3.19727C5.53753 2.77052 7.77553 2.14352 8.36128 2.28602C8.55253 2.33552 8.68378 2.45627 8.72953 2.62577C8.76328 2.81327 9.03553 6.86027 9.07453 7.76627C9.11278 8.54177 8.78053 8.64452 8.67178 8.67752ZM9.03703 13.1123C9.03103 15.2325 9.02578 15.3038 8.99128 15.4043C8.93203 15.5625 8.79628 15.6683 8.60878 15.7028C8.06878 15.7943 6.37978 15.1703 6.02803 14.7525C5.96389 14.6727 5.92314 14.5766 5.91028 14.475C5.90053 14.4075 5.91028 14.34 5.93503 14.2808C5.97778 14.1713 6.03628 14.0865 7.55353 12.3083L7.99903 11.7788C8.15128 11.5838 8.42128 11.5253 8.67328 11.6258C8.91703 11.7188 9.06928 11.9295 9.05278 12.1568V13.101L9.03703 13.1123ZM4.43953 11.7563C4.27303 11.7518 4.12453 11.6513 4.03828 11.4878C3.97603 11.3663 3.93178 11.1668 3.90328 10.9238C3.82678 10.1933 3.92053 9.09077 4.13878 8.74052C4.24228 8.58002 4.39228 8.49527 4.55803 8.50127C4.66753 8.50127 4.76503 8.53577 6.93328 9.42827L7.56928 9.68102C7.79578 9.76427 7.93603 10.0013 7.92328 10.2713C7.90678 10.5323 7.75528 10.7333 7.53253 10.7933L6.63103 11.0798C4.61428 11.7278 4.54753 11.7458 4.44178 11.7375L4.43953 11.7563ZM12.8545 15.7478H12.8515L12.8493 15.75L12.8545 15.7478Z" fill="#EFEFEE"/>
</svg>
