<svg width="18" height="19" viewBox="0 0 18 19" fill="none" xmlns="http://www.w3.org/2000/svg">
<path d="M15 16.5955H3C2.4 16.5955 2 16.0955 2 15.5955V3.59546C2 2.99546 2.4 2.59546 3 2.59546H8C8.6 2.59546 9 2.19546 9 1.59546C9 0.995459 8.6 0.595459 8 0.595459H2C0.9 0.595459 0 1.49546 0 2.59546V16.5955C0 17.6955 0.9 18.5955 2 18.5955H16C17.1 18.5955 18 17.6955 18 16.5955V10.5955C18 9.99546 17.5 9.59546 17 9.59546C16.5 9.59546 16 9.99546 16 10.5955V15.5955C16 16.0955 15.5 16.5955 15 16.5955ZM11 1.59546C11 2.19546 11.4 2.59546 12 2.59546H14.6L5.5 11.6955C5.1 12.0955 5.1 12.6955 5.5 13.0955C5.9 13.4955 6.5 13.4955 6.9 13.0955L16 3.99546V6.59546C16 7.19546 16.5 7.59546 17 7.59546C17.5 7.59546 18 7.19546 18 6.59546V1.59546C18 1.09546 17.5 0.595459 17 0.595459H12C11.4 0.595459 11 1.09546 11 1.59546Z" fill="#FBF9F4"/>
</svg>
